<svg xmlns="http://www.w3.org/2000/svg" version="1.1" width="800px" height="800px" xlink="http://www.w3.org/1999/xlink" style="overflow:hidden!important;"><g id="svga-group-wrapper" transform="scale(4 4)"><g id="svga-group-backs-single"><path id="SvgjsPath3762" d="M225 225H-25V-25h250V225z" fill="#ecf0f1" stroke-width="none" opacity="1"></path></g><g id="svga-group-subwrapper" ><g id="svga-group-hair-back" ><path id="SvgjsPath3785" d="M100.5,100.5h-1v-1h1V100.5z" fill="#2a232b" stroke-width="none" opacity="1"></path></g><g id="svga-group-humanbody-single"><path id="SvgjsPath2890" d="M195.417 199.778c-2.196-4.746-8.195-11.779-14.86-13.722 -8.239-2.403-26.837-5.308-33.733-6.923 -5.528-1.296-16.662-11.294-20.564-14.65 -0.7-0.6-1.273-1.839-1.287-2.76 -0.139-10.864 4.195-39.724 4.195-39.724H100 70.833c0 0 4.334 28.859 4.193 39.724 -0.011 0.921-0.587 2.16-1.285 2.76 -3.902 3.356-15.036 13.354-20.564 14.65 -6.897 1.615-25.495 4.619-33.733 7.022 -6.667 1.942-12.664 8.876-14.86 13.622 -3.708 8.008-4.584 22.5-4.584 35h100 100C200 222.278 199.123 207.786 195.417 199.778z" fill="#f0c7b1" stroke-width="none" opacity="1" stroke="none"></path><path id="SvgjsPath2891" d="M159.156 184.058c24.342 3.542 34.586 8.708 37.794 50.721H200c0-12.5-0.877-26.992-4.583-35 -2.196-4.746-8.195-11.779-14.86-13.722 -8.239-2.403-26.837-5.308-33.733-6.923 -5.528-1.296-18.242-12.069-21.643-16.35 3.36 4.704 12.791 15.605 21.054 18.46C150.188 182.61 153.48 183.232 159.156 184.058zM53.766 181.244c8.263-2.854 17.693-13.756 21.054-18.46 -3.4 4.28-16.114 15.054-21.643 16.35 -6.896 1.615-25.494 4.619-33.733 7.022 -6.665 1.942-12.664 8.876-14.86 13.622 -3.706 8.008-4.583 22.5-4.583 35h3.05c3.188-41.744 13.475-47.183 37.794-50.721C46.52 183.232 49.813 182.61 53.766 181.244z" fill="#ffe4d6" stroke-width="none" opacity="1" stroke="none"></path><path id="SvgjsPath2892" d="M95.646 197.62c0 0-5.074-1.609-7.083-2.379 -10.449-4.009-44.395-6.607-44.395-6.607s35.754 1.419 43.644 2.779c-0.458-4.767-3.017-20.004-3.017-20.004s5.149 16.815 6.409 21.057C91.878 194.734 95.646 197.62 95.646 197.62zM106.445 196.278c-0.089 0.073-0.191 0.168-0.302 0.268C106.256 196.461 106.358 196.372 106.445 196.278zM95.646 197.62c0 0 2.893 2.992 4.347 3.03 1.91 0.051 4.828-2.899 6.151-4.104 -1.265 0.957-4.159 1.391-5.31 1.436C99.504 198.033 95.646 197.62 95.646 197.62zM116.664 190.101c-1.545 0.248-4.386 0.789-4.386 0.789l2.287-14.89c-0.646 3.071-4.474 16.211-8.12 20.278 1.91-1.616 6.158-2.391 8.324-2.704 10.236-1.484 10.232-1.483 41.062-4.94C155.831 188.634 126.76 188.479 116.664 190.101z" fill="#e1ac8f" stroke-width="none" opacity="1" stroke="none"></path><path id="SvgjsPath2893" d="M195.417 199.778c-2.196-4.746-8.195-11.779-14.86-13.722 -8.239-2.403-26.837-5.308-33.733-6.923 -5.528-1.296-16.662-11.294-20.564-14.65 -0.7-0.6-1.273-1.839-1.287-2.76 -0.139-10.864 4.195-39.724 4.195-39.724H100 70.833c0 0 4.334 28.859 4.193 39.724 -0.011 0.921-0.587 2.16-1.285 2.76 -3.902 3.356-15.036 13.354-20.564 14.65 -6.897 1.615-25.495 4.619-33.733 7.022 -6.667 1.942-12.664 8.876-14.86 13.622 -3.708 8.008-4.584 22.5-4.584 35h100 100C200 222.278 199.123 207.786 195.417 199.778z" fill="none" stroke="#c27b55" stroke-width="1.5" opacity="1"></path></g><g id="svga-group-chinshadow-single"><path id="SvgjsPath3609" d="M100.021 171.866c8.183 0 16.871-4.943 24.199-10.675 -0.001-6.702 1.451-19.105 2.652-28.205 -15.382-2.247-38.406-2.279-53.766-0.152 1.184 8.96 2.625 21.206 2.671 28.02C83.119 166.767 91.822 171.866 100.021 171.866z" fill="url(#SvgjsLinearGradient3610)" opacity="1"></path></g><g id="svga-group-clothes-single" ><path id="SvgjsPath3845" d="M197.798 201.546c-10.478-20.278-30.653-17.404-49.968-22.843 -0.468 3.585-13.251 20.479-16.287 30.061 -1.705-1.423-3.74-3.325-5.209-5.066 -7.188-8.443-17.841-35.76-21.416-14.428 0.777-9.576 5.003-11.686 10.871-3.659 6.308 8.638 6.542 13.098 15.542 22.491 1.59-6.601 5.032-11.259 9.036-17.104 3.875-5.663 6.705-8.217 7.119-13.258 -1.445-2.408-1.099-3.486-3.434-5.046 -14.655-9.912-4.192-19.97-17.476-22.365 -0.104 1.198-0.235 2.54-0.345 3.549 2.841 1.462 3.691 7.152-0.683 11.318 -6.951 7.631-18.12 8.01-21.032 19.723l-0.007-0.001c-0.927 3.477-1.669 8.799-2.021 11.919l-2.455 24.898 -2.47-24.457c-2.003-18.359-4.621-20.155-13.183-25.828 -5.673-3.76-14.943-9.433-11.917-15.847 0.345-0.742 0.765-1.198 1.286-1.541 -0.15-1.466-0.238-2.316-0.354-3.678 -10.967 0.467-9.281 15.982-17.586 21.69 -2.177 1.496-3.287 2.879-4.068 5.129 0.531 6.281 14.504 20.476 16.945 30.899 9.085-9.592 9.155-13.783 15.5-22.459 5.465-7.465 9.928-6.699 10.867 3.403 -0.516-3.035-1.738-7.681-4.386-7.681 -2.182 0-4.456 3.218-5.581 4.771 -6.299 8.678-7.311 14.885-16.647 22.633 -0.646-1.941-1.404-3.891-2.308-5.706 -3.7-7.474-13.719-22.555-14.858-24.017 -4.428 1.246-11.177 2.626-15.233 3.3 -26.504 4.411-36.778 12.969-40.685 53.031 97.202-0.984 136.811-0.556 209.21-0.556C203.66 225.907 201.881 209.46 197.798 201.546z" fill="#39557e" stroke-width="none" opacity="1"></path><path id="SvgjsPath3846" d="M139.969 190.783c-3.461 5.054-6.201 9.3-7.908 14.621 1.967-10.979 14.436-21.374 13.086-27.939 -0.578-2.812-10.526-9.081-11.041-18.4 2.745 8.538 12.992 14.632 13.009 18.723C147.142 184.482 146.942 180.595 139.969 190.783zM204.486 234.028c0.347-8.682-2.572-25.584-6.19-32.598 -10.478-20.278-31.563-17.691-50.877-23.13 -0.171 0.218 0.49 1.66 0.027 2.28C192.595 188.9 197.736 198.817 204.486 234.028zM55.812 172.075c5.547-4.597 7.21-9.05 8.483-13.011 -2.85 16.28-7.111 10.123-10.22 18.276 -1.778 4.663 12.003 17.403 13.866 28.063 -2.442-4.175-5.06-9.313-8.521-14.367 -2.694-3.937-4.41-7.537-7.079-10.567C51.069 173.756 53.696 173.829 55.812 172.075zM52.34 180.47c-0.463-0.62-0.894-1.204-1.065-1.422 -19.314 5.438-38.594 2.104-49.071 22.383 -3.619 7.014-5.426 21.363-6.423 30.064 1.929-10.573 4.804-23.893 10.963-31.929C17.188 185.399 36.46 182.665 52.34 180.47z" fill="#4e688d" stroke-width="none" opacity="1"></path><path id="SvgjsPath3847" d="M119.848 171.392c-4.863 2.82-8.981 5.588-11.713 9.481 6.567 0.362 11.421 12.099 12.734 13.695 -12.333-17.166-17-5.5-18.5 5.432 0.432-3.546 0.787-9.596 1.487-12.193 0.204-1.033 0.423-2.021 0.654-2.889l0.007 0.001c2.912-11.713 14.081-12.092 21.032-19.723 4.374-4.166 3.523-9.856 0.683-11.318 0.109-1.009 0.241-2.351 0.345-3.549 0.729 0.133 1.379 0.292 1.982 0.469C137.518 158.679 125.96 168.657 119.848 171.392zM78.965 171.392c4.864 2.82 10.812 6.162 13.536 9.717 -4.798-0.873-10.131 6.294-12.798 12.627 11.5-14.667 15-6.333 18.667 6.265 -0.431-3.545-1.524-9.596-2.224-12.193 -0.204-1.033-0.422-2.021-0.654-2.889l-0.006 0.001c-2.912-11.713-13.682-12.092-20.633-19.723 -4.374-4.166-3.622-9.856-0.781-11.318 -0.109-1.009-0.24-2.351-0.344-3.549 -0.729 0.133-1.379 0.292-1.982 0.469C64.238 159.967 73.472 168.06 78.965 171.392z" fill="#27446f" stroke-width="none" opacity="1"></path><path id="SvgjsPath3848" d="M125.876 163.323c0.031-5.701-0.159-2.538 0.418-8.99C128.518 155.526 128.801 160.423 125.876 163.323zM74.139 162.784c-2.323-3.04-2.61-6.145-0.347-8.49C74.334 159.352 74.059 158.742 74.139 162.784z" fill="#18355f" stroke-width="none" opacity="1"></path><path id="SvgjsPath3849" d="M147.624 176.915c-0.206-3.542-7.813-6.496-11.188-14.175 -2.417-5.47-0.123-11.734-10.065-12.741 -0.545 3.187-1.028 10.193-0.883 13.579 -5.038 5.423-12.831 6.826-17.785 12.657 -5.288 6.224-7.58 19.7-7.667 47.667l1.232-0.801c0 0 1.372-26.485 1.382-26.563 3.084-26.427 12.888-20.185 22.979-31.263 4.521-4.332 3.441-10.072 0.722-11.463 0.118-1.12 0.228-2.229 0.325-3.35 8.552 1.571 6.109 6.605 8.784 12.753 3.556 8.174 10.297 9.959 10.732 13.923 0.69 6.281-3.058 8.947-6.817 14.434 -5.913 8.559-7.28 12.925-8.101 16.308 -8.975-9.426-8.98-13.558-15.398-22.338 -6.844-9.366-11.339-4.974-13.226 10.996 0.194-2.625 3.77-17.175 8.043-14.651 4.939 2.878 9.791 15.108 15.561 21.886 1.539 1.823 3.521 3.652 5.345 5.182 3.407-11.897 16-24.465 16.408-30.205 19.695 5.556 53.439-0.145 56.441 55.963 -41.138 0.22-85.815-0.682-208.97 0.554 1.785-18.437 4.804-36.508 15.723-44.653 4.685-3.507 10.117-5.341 15.712-6.508 7.797-1.616 16.522-2.655 24.253-4.747 0.788 1 14.205 21.198 17.224 29.597 10.863-8.503 15.207-24.459 21.188-27.214 4.164-1.913 7.559 11.938 7.753 14.553 -1.63-16.891-6.95-22.418-17.024-4.923 -4.964 8.624-6.28 10.962-11.56 16.51 -2.12-8.994-16.895-25.954-16.253-30.662 0.634-4.646 6.314-3.363 10.098-13.244 2.122-5.54 1.652-11.648 10.708-13.455 0.098 1.167 0.217 2.32 0.336 3.486 -2.479 1.631-3.109 7.111 0.852 10.942 3.567 4.085 10.004 6.416 14.255 9.676 5.011 3.867 6.993 7.827 8.588 21.67 0.035 0.302 1.37 26.942 1.37 26.942l1.333 0.667c-0.667-27.833-3.335-44.568-8.721-49.258 -4.652-4.15-12.775-6.796-16.717-11.429 0.12-3.476-0.565-10.518-0.993-13.171 -9.009 0.918-9.264 6.638-11.196 11.632 -5.165 13.351-10.134 9.527-10.957 15.059 -0.077 0.517 0.042 0.906 0.167 1.594 -7.58 1.548-17.04 2.563-24.641 3.953 -11.343 2.071-22.045 8.058-26.925 19.452 -3.707 8.647-4.781 24.051-5.053 33.543 -0.011 0.068-0.011 0.147-0.011 0.215 0.152 0.012 0.314 0.012 0.466 0.012 130.475 1.387 208.449-0.578 209.534-0.578C205.369 181.568 176.202 183.902 147.624 176.915zM125.976 163.024c0.016-2.933 0.105-6.329 0.318-8.691C127.892 155.473 129.133 159.262 125.976 163.024zM74.088 162.593c-2.652-3.471-1.6-6.836-0.396-8C73.943 156.939 74.042 160.224 74.088 162.593z" fill="#0c2850" stroke-width="none" opacity="1"></path></g><g id="svga-group-head" ><g id="svga-group-ears-left" ><path id="SvgjsPath2903" d="M45.671 84.344c-1.485-2.462-6.327-9.199-10.031-8.254 -3.012 0.772-2.973 4.971-3.206 7.455 -0.34 3.644-0.464 9.992 0.525 12.568 0.951 2.473 3.96 7.252 5.828 9.075 2.299 2.235 5.97 9.358 6.422 10.097 0.711 1.168 2.137 2.84 4.325 2.708 3.071-0.185 5.724-3.087 5.965-4.485C56.8 105.918 49.536 90.75 45.671 84.344z" fill="#f0c7b1" stroke="#c27b55" stroke-width="1.5" opacity="1"></path><path id="SvgjsPath2904" d="M44.2 99.341c-0.143-0.563 0.007-1.513 0.154-2.429 0.133-0.835 0.258-1.624 0.182-2.182 -0.289-2.09-1.915-6.06-2.976-8.212 -1.223-2.476-3.199-5.595-5.679-6.399 -1.024-0.333-1.699 0.065-2.089 0.468 -0.288 0.296-0.353 0.645-0.259 0.687 0.095 0.041 0.307-0.248 0.617-0.519 0.254-0.222-0.508-0.04 0 0 -0.205 1.04-0.865 6.302-0.41 10.143 0.358 3.022 1.05 5.279 1.263 5.617 0.031 0.356 0.083 0.705 0.16 1.043 1.002 4.41 7.518 10.177 9.034 11.82 0.28 0.303 0.574 0.483 0.646 0.409s-0.101-0.373-0.379-0.678c-1.498-1.632-7.971-7.381-8.939-11.635 -1.027-4.514 3.912-11.207 4.699-12.623 0.401 0.665 0.742 1.303 1.004 1.835 0.207 0.417 0.434 0.906 0.67 1.435 -0.463 0.738-5.118 6.127-3.934 10.441 0.438 1.591 3.822 3.642 5.131 4.203 0.72 0.31 0.99 0.772 1.304 1.306 0.364 0.624 0.033 2.229 1.23 2.739 0.244 0.104 0.464 0.146 0.659 0.146 0.338 0 0.594-0.13 0.783-0.284 0.02 0.271 0.019 0.619 0.009 0.941 -0.012 0.418 0.047 0.609 0.148 0.617 0.103 0.009 0.21-0.174 0.223-0.587 0.017-0.51 0.014-1.141-0.077-1.444 -0.269-0.889-1.088-1.894-1.957-2.957C44.563 102.197 44.422 100.213 44.2 99.341zM34.969 95.432c-2.348-6.923 1.283-13.229 1.81-14.179 1.012 0.399 2.562 2.193 3.221 3.235C39.52 85.321 35.067 90.775 34.969 95.432zM45.772 106.464c-1.084-0.462-0.706-1.984-1.056-2.584 -0.318-0.542-0.646-1.102-1.479-1.46 -0.18-0.078-0.379-0.196-0.583-0.332 -2.682-6.075 0.293-8.73 1.039-9.273 0.229 0.742 0.399 1.423 0.476 1.97 0.068 0.5-0.059 1.298-0.181 2.068 -0.153 0.955-0.31 1.944-0.147 2.584 0.244 0.953 0.411 2.97 1.291 4.048 0.781 0.956 1.583 1.942 1.857 2.746C46.871 106.391 46.5 106.775 45.772 106.464z" fill="#c27b55" stroke-width="none" opacity="1" stroke="none"></path></g><g id="svga-group-ears-right" ><path id="SvgjsPath2905" d="M154.066 84.344c1.486-2.462 6.328-9.199 10.031-8.254 3.012 0.772 2.973 4.971 3.207 7.455 0.34 3.644 0.463 9.992-0.525 12.568 -0.951 2.473-3.961 7.252-5.828 9.075 -2.299 2.235-5.971 9.358-6.422 10.097 -0.711 1.168-2.137 2.84-4.326 2.708 -3.07-0.185-5.723-3.087-5.965-4.485C142.938 105.918 150.203 90.75 154.066 84.344z" fill="#f0c7b1" stroke="#c27b55" stroke-width="1.5" opacity="1"></path><path id="SvgjsPath2906" d="M154.322 103.243c-0.869 1.063-1.688 2.068-1.957 2.957 -0.092 0.304-0.094 0.935-0.078 1.444 0.014 0.413 0.121 0.596 0.225 0.587 0.102-0.008 0.16-0.199 0.148-0.617 -0.01-0.322-0.012-0.67 0.008-0.941 0.189 0.154 0.445 0.284 0.783 0.284 0.195 0 0.416-0.042 0.66-0.146 1.195-0.511 0.865-2.116 1.229-2.739 0.314-0.534 0.584-0.997 1.305-1.306 1.309-0.561 4.693-2.611 5.131-4.203 1.184-4.314-3.471-9.704-3.934-10.441 0.234-0.529 0.463-1.018 0.668-1.435 0.264-0.532 0.604-1.171 1.006-1.835 0.787 1.416 5.725 8.108 4.699 12.623 -0.969 4.254-7.441 10.003-8.939 11.635 -0.279 0.305-0.453 0.604-0.381 0.678 0.074 0.074 0.367-0.106 0.646-0.409 1.516-1.643 8.031-7.41 9.033-11.82 0.078-0.338 0.131-0.687 0.162-1.043 0.211-0.337 0.904-2.594 1.262-5.617 0.455-3.841-0.205-9.103-0.41-10.143 0.508-0.04-0.254-0.222 0 0 0.311 0.271 0.523 0.56 0.617 0.519 0.094-0.042 0.029-0.39-0.258-0.687 -0.391-0.403-1.066-0.801-2.09-0.468 -2.48 0.804-4.457 3.923-5.68 6.399 -1.061 2.152-2.686 6.122-2.975 8.212 -0.076 0.558 0.049 1.347 0.182 2.182 0.146 0.916 0.297 1.866 0.154 2.429C155.316 100.213 155.176 102.197 154.322 103.243zM159.738 84.488c0.66-1.042 2.209-2.835 3.221-3.235 0.527 0.95 4.158 7.256 1.811 14.179C164.672 90.775 160.219 85.321 159.738 84.488zM152.75 106.229c0.273-0.804 1.076-1.79 1.857-2.746 0.879-1.078 1.047-3.095 1.291-4.048 0.162-0.64 0.006-1.629-0.146-2.584 -0.123-0.77-0.25-1.568-0.182-2.068 0.076-0.547 0.246-1.228 0.475-1.97 0.746 0.543 3.721 3.199 1.039 9.273 -0.203 0.136-0.402 0.254-0.584 0.332 -0.832 0.358-1.16 0.918-1.479 1.46 -0.35 0.6 0.029 2.123-1.055 2.584C153.238 106.775 152.867 106.391 152.75 106.229z" fill="#c27b55" stroke-width="none" opacity="1" stroke="none"></path></g><g id="svga-group-faceshape-wrap" ><g id="svga-group-faceshape-single" ><path id="SvgjsPath3606" d="M158.785 78.006l-0.005 0c-0.01 0.046-12.197 40.27-15.879 52.418 -0.715 2.358-1.931 4.551-3.556 6.386 -6.375 7.194-23.768 25.057-39.324 25.057 -15.849 0-33.591-19.045-39.708-26.214 -1.442-1.688-2.507-3.633-3.172-5.765 -3.607-11.551-16.126-51.648-16.137-51.694h-0.001c-1.298-4.992-1.994-10.231-2.002-15.634C38.949 28.536 66.155 0.92 99.773 0.867c33.621-0.053 60.913 27.476 60.964 61.499C160.746 67.769 160.068 73.01 158.785 78.006z" fill="#f0c7b1" stroke-width="none" opacity="1"></path><path id="SvgjsPath3607" d="M132.168 10.26c14.31 11.135 23.671 29.457 23.699 50.208 0.009 5.404-0.615 10.645-1.796 15.641l-0.004 0c-0.009 0.046-11.223 40.27-14.608 52.417 -0.658 2.358-1.776 4.551-3.271 6.385 -5.865 7.195-21.866 25.059-36.178 25.059 -14.582 0-30.904-19.047-36.531-26.215 -1.327-1.689-2.306-3.633-2.918-5.764 -3.318-11.552-14.836-51.649-14.846-51.695h-0.001c-1.194-4.992-1.834-10.231-1.842-15.634 -0.029-20.827 9.348-39.239 23.713-50.412C50.392 21.159 38.967 40.508 39.001 62.56c0.008 5.403 0.704 10.643 2.002 15.634h0.001c0.01 0.046 12.53 40.143 16.137 51.694 0.666 2.132 1.73 4.076 3.172 5.765 6.116 7.169 23.858 26.214 39.708 26.214 15.557 0 32.949-17.862 39.324-25.057 1.625-1.835 2.841-4.027 3.556-6.386 3.682-12.148 15.869-52.372 15.879-52.418l0.005 0c1.283-4.997 1.961-10.237 1.952-15.641C160.704 40.389 149.297 21.135 132.168 10.26z" fill="#e8b9a0" stroke-width="none" opacity="1"></path><path id="SvgjsPath3608" d="M158.785 78.006l-0.005 0c-0.01 0.046-12.197 40.27-15.879 52.418 -0.715 2.358-1.931 4.551-3.556 6.386 -6.375 7.194-23.768 25.057-39.324 25.057 -15.849 0-33.591-19.045-39.708-26.214 -1.442-1.688-2.507-3.633-3.172-5.765 -3.607-11.551-16.126-51.648-16.137-51.694h-0.001c-1.298-4.992-1.994-10.231-2.002-15.634C38.949 28.536 66.155 0.92 99.773 0.867c33.621-0.053 60.913 27.476 60.964 61.499C160.746 67.769 160.068 73.01 158.785 78.006z" fill="none" stroke="#c27b55" stroke-width="1.5" opacity="1"></path></g></g><g id="svga-group-mouth-single" ><path id="SvgjsPath3722" d="M96.227 139.237l8.297-0.207C103.563 143.5 96.884 142.858 96.227 139.237z" fill="url(#SvgjsLinearGradient3723)" opacity="1"></path><path id="SvgjsPath3726" d="M96.343 139.52c-0.371-0.05-0.315-0.579 0.08-0.542 0.043 0.006 4.308 0.546 7.878-0.215 0.386-0.075 0.5 0.455 0.13 0.534C101.634 139.895 98.015 139.755 96.343 139.52zM100.083 135.95c-1.503 0-2.96-0.521-4.424-0.776 -1.64-0.287-3.274-0.041-4.915 0.104 -1.676 0.149-5.333-0.013-6.365-0.666 -0.578-0.367-0.47-1.221 0.181-1.449 0.614-0.22 1.571 0.236 2.191 0.347 2.872 0.515 4.384-0.034 6.902-0.118 3.851-0.116 4.26 1.501 9.064 0.53 5.165-1.044 7.491-0.254 11.197-1.37 0.508-0.154 1.112-0.56 1.645-0.286 0.615 0.318 0.585 1.185-0.049 1.464 -3.406 1.502-7.174 0.895-10.955 1.526C103.073 135.502 101.596 135.95 100.083 135.95z" fill="#c27b55" stroke-width="none" opacity="1"></path></g><g id="svga-group-eyes-left" ><g id="svga-group-eyesback-left"><path id="SvgjsPath3143" d="M61.752 82.523c-0.506-2.285 5.191-3.973 12.711-3.051 7.518 0.923 12.738 5.524 12.052 7.844 -0.38 1.286-10.639 3.245-14.253 2.847C68.598 89.758 62.974 88.04 61.752 82.523z" fill="url(#SvgjsRadialGradient3144)" opacity="1"></path></g><g id="svga-group-eyesiriswrapper-left" transform="translate(0.25 0.25)"><g id="svga-group-eyesiriscontrol-left" ><g id="svga-group-eyesiris-left" ><path id="SvgjsPath3853" d="M80 84c0 3.313-2.687 5.999-6 5.999S68 87.313 68 84c0-3.316 2.687-6.001 6-6.001S80 80.685 80 84z" fill="#3e4442" stroke-width="none" opacity="1"></path><path id="SvgjsPath3854" d="M70.512 86.805c0.875-0.072 0.1-0.306 0.1-0.306 -0.433-0.233-1.248-0.592-1.248-0.921 0-1.031 1.414-1.299-0.034-1.705 -1.504-1.38 1.167-1.352 1.147-1.398 -0.975-2.376 0.299-1.071 0.835-1.773 1.988-2.599 0.554 0.267 1.633 0 0.391-0.096-0.78-1.531 0.034-1.33 0.539 0.132 0.662 0.58 0.662 0.58 0.393-0.077 1.008-0.682 1.008-0.682 0.749 0.226 1.275 1.29 1.043 1.091 0.368-0.045 0.884-0.221 1.286-0.341 0 0 0.07-0.239 0.139-0.033 0.917 2.661 3.284 2.47 0.559 3.24 0 0-0.176 0 0.382 0.442 2.71 2.164-2.102 1.495 0.451 2.49 0.104-0.104-1.53 0.965-1.53 1.261 0 0.501-1.042 1.818-1.946 1.3 -0.504-0.288-0.581 0.6-0.877 0.19 -0.581-0.803-1.742-0.035-1.313-0.773 0.634-0.521-0.654 0.204-0.904 0.204 -0.828 0 1.083-2.783 3.894-0.715 0.822 0.602-0.864-1.433 0.625-1.433 0.149 0.049 0.104-0.521 0.104-0.682 -0.774-0.151 1.39-0.003 1.39-1.262 0.137 0.027 0.509-0.35-1.635 0 0 0-0.068-0.75-0.034-0.886 0.11-0.438 1.214-0.298 0.904-0.75 0-0.001-0.799-1.604-0.799-1.604 -2.573-0.414-1.102-0.672-2.711-0.341 -0.076 0.378-3.445 1.984-3.338 2.729 0.1 0.702 2.115 0.938 0.208 2.182C73.405 91.051 68.437 85.454 70.512 86.805z" fill="#535353" stroke-width="none" opacity="1"></path><path id="SvgjsPath3855" d="M74 78.749l0.171 4.393 1.837-3.993 -1.523 4.123 3.227-2.985 -2.985 3.226 4.124-1.523 -3.992 1.839 4.392 0.17 -4.392 0.17 3.992 1.839 -4.124-1.523 2.985 3.226 -3.227-2.985 1.523 4.123 -1.837-3.993L74 89.249l-0.171-4.393 -1.838 3.993 1.522-4.123 -3.226 2.985 2.985-3.226 -4.124 1.523 3.992-1.839 -4.39-0.17 4.39-0.17 -3.992-1.839 4.124 1.523 -2.985-3.226 3.226 2.985 -1.522-4.123 1.838 3.993L74 78.749z" fill="#1b2522" stroke-width="none" opacity="1"></path><path id="SvgjsPath3856" d="M74.796 80.067l-0.539 3.315 1.981-2.711 -1.766 2.857 2.87-1.748 -2.725 1.964 3.319-0.515L74.668 84l3.266 0.794 -3.317-0.538 2.712 1.982 -2.858-1.765 1.748 2.869 -1.964-2.725 0.516 3.319 -0.771-3.27 -0.795 3.264 0.539-3.315 -1.984 2.711 1.768-2.857 -2.869 1.748 2.725-1.964 -3.319 0.516 3.269-0.771 -3.264-0.793 3.315 0.537 -2.712-1.982 2.858 1.765 -1.747-2.869 1.964 2.725 -0.516-3.318 0.772 3.27L74.796 80.067z" fill="#0e1613" stroke-width="none" opacity="1"></path><path id="SvgjsPath3857" d="M76.25 84c0 1.243-1.008 2.25-2.25 2.25s-2.25-1.007-2.25-2.25 1.008-2.25 2.25-2.25S76.25 82.757 76.25 84z" fill="#000000" stroke-width="none" opacity="0.9"></path><path id="SvgjsPath3858" d="M71.637 88.311c-0.331 0.332-0.985 0.215-1.46-0.261 -0.476-0.475-0.593-1.129-0.261-1.461 0.331-0.331 0.985-0.214 1.46 0.261C71.852 87.326 71.969 87.979 71.637 88.311z" fill="#ffffff" stroke-width="none" opacity="0.7"></path><path id="SvgjsPath3859" d="M78.806 82.818c-0.496 0.496-1.697 0.1-2.682-0.886 -0.986-0.986-1.382-2.187-0.886-2.683 0.496-0.496 1.697-0.1 2.682 0.886C78.906 81.122 79.302 82.322 78.806 82.818z" fill="#ffffff" stroke-width="none" opacity="0.9"></path></g></g></g><g id="svga-group-eyesfront-left"><path id="SvgjsPath3165" d="M53.294 83c0.809 10.899 11.637 23.583 20.506 22.236 10.498 0.106 20.864-7.868 20.864-22.305s-5.087-26.528-21.127-26.528C62.037 56.402 53.294 68.563 53.294 83zM61.752 82.523c-0.506-2.285 5.191-3.973 12.711-3.051 7.518 0.923 12.738 5.524 12.052 7.844 -0.38 1.286-10.639 3.245-14.253 2.847C68.598 89.758 62.974 88.04 61.752 82.523z" fill="#f0c7b1" stroke-width="none" opacity="1"></path><path id="SvgjsPath3166" d="M72.262 90.163c3.614 0.398 13.873-1.561 14.253-2.847 0.687-2.32-4.534-6.921-12.052-7.844C68.003 78.68 62.9 79.816 61.907 81.6c0.898-6.4 7.7-11.397 15.987-11.434 8.911-0.037 16.148 5.676 16.172 12.765 0.021 7.088-7.185 12.862-16.095 12.902 -8.913 0.037-16.149-5.676-16.173-12.764 0-0.105 0.016-0.208 0.019-0.313C63.147 88.083 68.651 89.764 72.262 90.163z" fill="url(#SvgjsRadialGradient3167)" opacity="1"></path><path id="SvgjsPath3171" d="M61.752 82.523c-0.506-2.285 5.191-3.973 12.711-3.051 7.518 0.923 12.738 5.524 12.052 7.844 -0.38 1.286-10.639 3.245-14.253 2.847C68.598 89.758 62.974 88.04 61.752 82.523z" fill="url(#SvgjsRadialGradient3172)" opacity="1"></path><path id="SvgjsPath3175" d="M62.148 77.417c4.208-1.978 9.35-2.16 13.838-1.005 2.404 0.561 4.965 1.285 7.063 2.638 1.945 1.135 3.525 2.5 5.002 4.19 -1.342-1.701-2.773-3.118-4.623-4.27 -2.276-1.416-4.769-2.294-7.364-2.916C71.478 74.928 66.342 75.184 62.148 77.417z" fill="#c27b55" stroke-width="none" opacity="1"></path><path id="SvgjsPath3176" d="M62.769 78.02c0.88-0.352 4.065-1 5.456-1.066 1.687-0.082 5.073 0.125 6.735 0.424 3.374 0.608 9.251 2.483 11.678 7.184 0.746 1.445 0.074 2.456-0.123 2.675 0.3-2.426-4.838-6.746-12.052-7.604 -7.52-0.894-13.217 0.743-12.711 2.958 1.222 5.348 6.846 7.013 10.51 7.405 4.099 0.439 11.684-1.539 12.686-1.753 -1.999 1.009-7.524 2.095-9.767 2.303 -0.744 0.07-2.24 0.104-2.986 0.085 -5.949-0.158-10.169-3.175-11.729-7.26C59.464 80.745 60.56 78.902 62.769 78.02z" fill="#000000" stroke-width="none" opacity="1"></path></g></g><g id="svga-group-eyes-right" ><g id="svga-group-eyesback-right"><path id="SvgjsPath3150" d="M137.849 82.523c0.506-2.285-5.191-3.973-12.711-3.051 -7.518 0.923-12.738 5.524-12.052 7.844 0.38 1.286 10.639 3.245 14.253 2.847C131.003 89.758 136.627 88.04 137.849 82.523z" fill="url(#SvgjsRadialGradient3151)" opacity="1"></path></g><g id="svga-group-eyesiriswrapper-right" transform="translate(-0.25 0.25)"><g id="svga-group-eyesiriscontrol-right" ><g id="svga-group-eyesiris-right" ><path id="SvgjsPath3860" d="M132,83.999c0,3.316-2.684,6-6,6s-6-2.684-6-6s2.684-6,6-6S132,80.683,132,83.999z" fill="#3e4442" stroke-width="none" opacity="1"></path><path id="SvgjsPath3861" d="M122.508 86.806c0.879-0.076 0.105-0.305 0.105-0.305 -0.434-0.234-1.254-0.592-1.254-0.926 0-1.031 1.418-1.295-0.023-1.705 -1.512-1.377 1.16-1.348 1.137-1.395 -0.973-2.379 0.305-1.072 0.844-1.775 1.98-2.596 0.551 0.27 1.629 0 0.387-0.094-0.785-1.529 0.035-1.33 0.539 0.135 0.656 0.58 0.656 0.58 0.398-0.076 1.008-0.68 1.008-0.68 0.75 0.223 1.277 1.289 1.043 1.09 0.375-0.047 0.891-0.223 1.289-0.34 0 0 0.07-0.24 0.141-0.035 0.914 2.66 3.281 2.473 0.563 3.24 0 0-0.176 0 0.375 0.439 2.707 2.168-2.098 1.494 0.457 2.49 0.105-0.1-1.535 0.967-1.535 1.266 0 0.498-1.043 1.816-1.945 1.295 -0.504-0.287-0.586 0.604-0.879 0.193 -0.574-0.803-1.746-0.035-1.313-0.773 0.633-0.521-0.656 0.205-0.902 0.205 -0.832 0 1.078-2.783 3.891-0.715 0.82 0.598-0.867-1.436 0.633-1.436 0.141 0.047 0.105-0.521 0.105-0.68 -0.785-0.152 1.383-0.006 1.383-1.266 0.141 0.029 0.516-0.346-1.629 0 0 0-0.07-0.75-0.035-0.885 0.105-0.439 1.207-0.299 0.902-0.75l-0.797-1.605c-2.578-0.41-1.102-0.668-2.719-0.34 -0.07 0.381-3.445 1.986-3.34 2.73 0.105 0.703 2.121 0.938 0.211 2.18C125.402 91.054 120.434 85.452 122.508 86.806z" fill="#535353" stroke-width="none" opacity="1"></path><path id="SvgjsPath3862" d="M126 78.749l0.176 4.395 1.828-3.996 -1.523 4.125 3.234-2.988 -2.988 3.229 4.125-1.523 -3.996 1.84 4.395 0.17 -4.395 0.17 3.996 1.84 -4.125-1.523 2.988 3.229 -3.234-2.988 1.523 4.125 -1.828-3.996L126 89.249l-0.176-4.395 -1.84 3.996 1.523-4.125 -3.223 2.988 2.988-3.229 -4.125 1.523 3.996-1.84 -4.395-0.17 4.395-0.17 -3.996-1.84 4.125 1.523 -2.988-3.229 3.223 2.988 -1.523-4.125 1.84 3.996L126 78.749z" fill="#1b2522" stroke-width="none" opacity="1"></path><path id="SvgjsPath3863" d="M126.797 80.067l-0.539 3.316 1.98-2.713 -1.77 2.859 2.871-1.752 -2.719 1.969 3.316-0.516 -3.27 0.768 3.27 0.797 -3.316-0.539 2.707 1.98 -2.859-1.764 1.746 2.871 -1.957-2.725 0.516 3.316L126 84.667l-0.797 3.264 0.539-3.316 -1.98 2.713 1.77-2.859 -2.871 1.752 2.719-1.969 -3.316 0.516 3.27-0.768 -3.27-0.797 3.316 0.539 -2.707-1.98 2.859 1.764 -1.746-2.871 1.957 2.725 -0.516-3.316 0.773 3.27L126.797 80.067z" fill="#0e1613" stroke-width="none" opacity="1"></path><path id="SvgjsPath3864" d="M128.25 83.999c0 1.242-1.008 2.25-2.25 2.25s-2.25-1.008-2.25-2.25 1.008-2.25 2.25-2.25S128.25 82.757 128.25 83.999z" fill="#000000" stroke-width="none" opacity="0.9"></path><path id="SvgjsPath3865" d="M123.633 88.312c-0.328 0.328-0.984 0.217-1.453-0.264 -0.48-0.475-0.598-1.125-0.258-1.459 0.328-0.328 0.984-0.211 1.453 0.264C123.855 87.327 123.973 87.978 123.633 88.312z" fill="#ffffff" stroke-width="none" opacity="0.7"></path><path id="SvgjsPath3866" d="M130.805 82.815c-0.492 0.498-1.699 0.105-2.684-0.885 -0.984-0.984-1.383-2.186-0.879-2.678 0.492-0.498 1.688-0.105 2.672 0.885C130.91 81.122 131.297 82.323 130.805 82.815z" fill="#ffffff" stroke-width="none" opacity="0.9"></path></g></g></g><g id="svga-group-eyesfront-right"><path id="SvgjsPath3185" d="M126.063 56.402c-16.04 0-21.127 12.091-21.127 26.528s10.366 22.412 20.864 22.305c8.869 1.347 19.697-11.337 20.506-22.236C146.307 68.563 137.563 56.402 126.063 56.402zM127.339 90.163c-3.614 0.398-13.873-1.561-14.253-2.847 -0.687-2.32 4.534-6.921 12.052-7.844 7.52-0.922 13.217 0.767 12.711 3.051C136.627 88.04 131.003 89.758 127.339 90.163z" fill="#f0c7b1" stroke-width="none" opacity="1"></path><path id="SvgjsPath3186" d="M127.339 90.163c-3.614 0.398-13.873-1.561-14.253-2.847 -0.687-2.32 4.534-6.921 12.052-7.844 6.46-0.792 11.563 0.345 12.556 2.128 -0.898-6.4-7.7-11.397-15.987-11.434 -8.911-0.037-16.148 5.676-16.172 12.765 -0.021 7.088 7.185 12.862 16.095 12.902 8.913 0.037 16.149-5.676 16.173-12.764 0-0.105-0.016-0.208-0.019-0.313C136.453 88.083 130.949 89.764 127.339 90.163z" fill="url(#SvgjsRadialGradient3187)" opacity="1"></path><path id="SvgjsPath3191" d="M137.849 82.523c0.506-2.285-5.191-3.973-12.711-3.051 -7.518 0.923-12.738 5.524-12.052 7.844 0.38 1.286 10.639 3.245 14.253 2.847C131.003 89.758 136.627 88.04 137.849 82.523z" fill="url(#SvgjsRadialGradient3192)" opacity="1"></path><path id="SvgjsPath3195" d="M137.452 77.417c-4.208-1.978-9.35-2.16-13.838-1.005 -2.404 0.561-4.965 1.285-7.063 2.638 -1.945 1.135-3.525 2.5-5.002 4.19 1.342-1.701 2.773-3.118 4.623-4.27 2.276-1.416 4.769-2.294 7.364-2.916C128.123 74.928 133.259 75.184 137.452 77.417z" fill="#c27b55" stroke-width="none" opacity="1"></path><path id="SvgjsPath3196" d="M136.832 78.02c-0.88-0.352-4.065-1-5.456-1.066 -1.687-0.082-5.073 0.125-6.735 0.424 -3.374 0.608-9.251 2.483-11.678 7.184 -0.746 1.445-0.074 2.456 0.123 2.675 -0.3-2.426 4.838-6.746 12.052-7.604 7.52-0.894 13.217 0.743 12.711 2.958 -1.222 5.348-6.846 7.013-10.51 7.405 -4.099 0.439-11.684-1.539-12.686-1.753 1.999 1.009 7.524 2.095 9.767 2.303 0.744 0.07 2.24 0.104 2.986 0.085 5.949-0.158 10.169-3.175 11.729-7.26C140.137 80.745 139.041 78.902 136.832 78.02z" fill="#000000" stroke-width="none" opacity="1"></path></g></g><g id="svga-group-facehighlight-single" ><path id="SvgjsPath2882" d="M141 113.974c0.035 22.622-18.292 40.994-40.938 41.025 -22.642 0.037-41.028-18.273-41.063-40.9 -0.035-22.62 18.292-41.064 40.937-41.1C122.579 72.964 140.967 91.349 141 113.974z" fill="url(#SvgjsRadialGradient2883)" opacity="1"></path><path id="SvgjsPath2886" d="M137.5 53.999c0 20.711-16.789 37.5-37.499 37.5 -20.711 0-37.501-16.789-37.501-37.5s16.79-37.5 37.501-37.5C120.711 16.499 137.5 33.288 137.5 53.999z" fill="url(#SvgjsRadialGradient2887)" opacity="1"></path></g><g id="svga-group-eyebrows-left" ><path id="SvgjsPath2907" d="M54 74.189c9.954-9.974 16.761-5.915 30.589-3.264 0.845 0.162 6.32 1.539 5.31 3.469 -0.483 0.924-2.036 0.814-2.903 0.798C73.308 74.936 66.652 65.197 54 74.189z" fill="#2a232b" stroke-width="none" opacity="1"></path></g><g id="svga-group-eyebrows-right" ><path id="SvgjsPath2908" d="M146 74.189c-9.953-9.974-16.761-5.915-30.589-3.264 -0.846 0.162-6.32 1.539-5.311 3.469 0.483 0.924 2.036 0.814 2.903 0.798C126.691 74.936 133.348 65.197 146 74.189z" fill="#2a232b" stroke-width="none" opacity="1"></path></g><g id="svga-group-nose-single" transform="translate(0.5 0)"><path id="SvgjsPath3850" d="M91.115 115.499c-0.878 2.064 5.934 4.292 8.519 4.429 2.8 0.147 10.646-2.9 9.316-4.992 -1.399-2.195-6.643-0.286-8.906-0.286C97.792 114.649 92.291 112.745 91.115 115.499z" fill="#e1ac8f" stroke-width="none" opacity="1"></path><path id="SvgjsPath3851" d="M101.857 117.058c-0.23-0.759 1.876-1.584 2.657-1.694 1.101-0.16 3.36 0.802 3.158 1.592 -0.184 0.698-2.148-0.533-2.86-0.429C104.078 116.634 102.075 117.769 101.857 117.058zM94.974 116.811c0.968 0 2.404 0.623 2.668 0.074 0.315-0.655-2.139-1.461-2.86-1.372 -0.596 0.07-2.733 1.315-2.439 1.839C92.617 117.833 93.698 116.811 94.974 116.811z" fill="#c27b55" stroke-width="none" opacity="1"></path><path id="SvgjsPath3852" d="M100.089 111.999c0.607 0 1.742-0.74 1.792-2.23 0.201-6.008-0.956-23.833-1.792-23.77 -0.78 0.059-2.267 17.637-1.948 23.77C98.22 111.271 99.404 111.999 100.089 111.999z" fill="#fff5ef" stroke-width="none" opacity="0.2"></path></g><g id="svga-group-beardwrap" ><g id="svga-group-beard-single" ><path id="SvgjsPath3018" d="M100,18.13L100,18.13L100,18.13L100,18.13z" fill="#2a232b" stroke-width="none" opacity="1"></path></g></g><g id="svga-group-mustache-single" ><path id="SvgjsPath3016" d="M100,18.13L100,18.13L100,18.13L100,18.13z" fill="#2a232b" stroke-width="none" opacity="1"></path></g><g id="svga-group-hair-front" ><path id="SvgjsPath3787" d="M152.176 96.021c-4.33-11.451-2.396-20.042-3.227-37.21 -1.283-26.428-7.483-23.179-21.749-24.214C105.156 33 97.497 22.794 81.063 22.794c-8.887 0-19.24 4.048-27.173 11.001 -6.378 43.485 2.638 39.87-6.744 61.845 -5.953-6.247-6.721-15.865-11.134-28.495 -3.519-10.451-2.658-11.011-6.527-16.049 2.484 0.449 2.734 0.429 3.842 0.429 -1.97-4.306-4.479-11.951-5.429-15.273 2.329-1.116 4.839-3.909 6.47-5.919 -0.931-2.128-1.646-4.554-2.079-6.625 0.077-0.026 0.438-0.16 0.438-0.16l0.004-0.017c5.681-2.417 6.84-15.944 10.785-19.389 1.941-1.814 3.806-2.531 5.534-3.446 0.204-1.895 0.295-2.277 0.575-3.63 9.402-2.521 12.254-1.199 25.53-4.893 4.564-1.27 7.709-2.153 17.317-1.75 3.525 1.779 16.06 10.479 25.484 1.602 7.254 4.527 13.574 5.105 22.624 10.252 15.179 8.89 17.244 15.147 16.352 29.56 10.493 13.965 8.167 30.567 3.577 47.23C157.639 89.383 154.886 92.761 152.176 96.021z" fill="#2a232b" stroke-width="none" opacity="1"></path><path id="SvgjsPath3788" d="M152 82c-1-8 3-15 4-22 -1 2-3 3-3 5 0-7 3-13 2-20 -1 2-2 3-4 4 3-7 0-15-5-21 1 3 2 5 2 8 -6-9-20-10-30-15 2 3 6 5 9 7 -14-5-27-11-40-17 2.206 2.206 3.875 6.024 6.589 7.499 1.143 0.163 0.978 0.531 0 0C81.581 16.79 68.958 15.479 58 10c0 4 3 7 6 9 -3 0-6-3-8-2 -3 2 3 4 2 6 -3 2-6-1-9-1 2 3 0 8 2 11 -2-1-4-3-4-2 -1 4-3 5-3 8 0 5 3 10 3 15 0-1.608-1.938-1.279-2.697-2.127 5.009 13.975 4.782 28.692 2.606 43.497 0.082 0.089 0.154 0.184 0.237 0.271 9.382-21.975 0.366-18.36 6.744-61.845 7.933-6.953 18.286-11.001 27.173-11.001 16.435 0 24.094 10.207 46.138 11.802 14.266 1.036 20.466-2.214 21.749 24.214 0.83 17.168-1.104 25.759 3.227 37.21 0.005-0.005 0.009-0.011 0.014-0.016C152.841 88.595 155 81.796 155 75 154 77 153 79 152 82z" fill="#0c080c" stroke-width="none" opacity="1"></path><path id="SvgjsPath3789" d="M159.263 71.488C158.954 72.145 157 72.343 157 73c0-3 3.516-5.243 2.924-10.264 0 0.396-3.158 2.95-3.475 3.346 -0.206 1 4.288-10.681 4.288-14.542C159.263 53.999 158 54 158 56c0-4-0.006-9.854-0.006-13.854 0 2-1.994 4.949-1.994 6.949 0.933-7.464-3.404-16.095-4.28-23.501 -0.511 1.795-1.479 3.889-0.72 5.406 -3-4-2-11-7-14 -1 2-1 4-2 6 -3-4-7-7-9-11 0 2 0 3 0 5 -5-4-12-6-15-12 0 2 0 5 0 7 -4-1-10.495-4.596-12.495-7.596C105.505 7.404 109 12 109 15c-8-4-14-10-22-14 0 2 2 4 1 6 -4-2-11.771-2-13.771-6 0 3 3.11 6 3.11 9 -9-1-11.009-3.822-19.242-7.596C57.097 4.404 56 7 55 9c-2-2-3-4-6-4 0 3 3 7 1 10 -1 1-5-3-5-2 -2 4 0 10-2 14 0 1-3-2-5-1 3.872 5.807 1.202 12.548 3.745 18.416C41.843 44.598 41.93 44.79 42 45c-0.096-0.193-0.17-0.389-0.255-0.584C40.452 41.988 36.93 41.79 36 39c0 7.303 4.157 13.774 5.645 20.932C42.15 60.233 42.404 60.788 42 62c-0.087-0.697-0.214-1.385-0.355-2.068C40.897 59.486 39.596 59.596 39 59c4.728 9.455 6.191 25.673 7.909 36.369 3.545-15.374 1.709-31.456-2.606-43.497C44.118 51.666 44 51.392 44 51c0.109 0.29 0.198 0.582 0.303 0.873C45.063 52.721 47 52.392 47 54c0-5-3-10-3-15 0-3 2-4 3-8 0-1 2 1 4 2 -2-3 0-8-2-11 3 0 6 3 9 1 1-2-5-4-2-6 2-1 5 2 8 2 -3-2-6-5-6-9 10.958 5.479 23.581 6.79 35.589 8.499C90.875 17.024 89.206 13.206 87 11c13 6 26 12 40 17 -3-2-7-4-9-7 10 5 24 6 30 15 0-3-1-5-2-8 5 6 8 14 5 21 2-1 3-2 4-4 1 7-2 13-2 20 0-2 2-3 3-5 -1 7-5 14-4 22 1-3 2-5 3-7 0 6.796-2.159 13.595-2.811 21.004 0.814-0.979 1.633-1.975 2.457-3.163C154.545 85.429 157.479 79.338 159.263 71.488z" fill="#1b141c" stroke-width="none" opacity="1"></path><path id="SvgjsPath3790" d="M93.119 18.235c-1.128 0.089-2.468 0.279-4.94-0.096 -6.698-0.927-28.617-1.793-29.81-8.654 1.055 3.353 7.405 4.299 12.204 5.198 0 0 3.382 0.651 8.723 1.251C89.291 17.101 87.179 17.888 93.119 18.235zM115.897 23.746C92 13.389 93.7 14.531 88.119 10.985c7.333 6.156 9.839 6.172 22.619 12.018 5.921 2.667 7.078 2.561 15.131 4.482C120.224 25.241 119.559 25.287 115.897 23.746zM118.619 20.735c9.914 8.153 22.008 6.125 29.75 15C142.164 25.918 128.518 26.908 118.619 20.735zM59.905 17.331c-2.668-0.805-3.997-0.43-5.286 0.404 4.225-1.989 8.651 2.923 13.75 1.5C66.006 19.523 59.905 17.53 59.905 17.331zM57.051 23.932c-2.328-0.734-5.203-1.979-7.151-1.927 -1.03 0.024-1.281 0.48-1.281 0.48 0.975-1.139 5.609 1.099 8.396 1.626 0.766 0.16 1.354 0.123 1.354 0.123S57.783 24.176 57.051 23.932zM45.652 35.678c0.687-1.892 1.461-3.751 1.256-5.482 -0.104-0.627-0.309-0.955-0.289-0.96 0.464 1.973-0.313 3.175-1.68 6.136 -3.015 6.453 0.924 11.484 2.43 18.364C46.86 45.866 43.166 42.389 45.652 35.678zM154.369 45.985c0.32 2.168 0.225 3.63-0.154 7.075 0 0-0.695 5.779-2.096 11.425C154.198 59.638 155.94 51.389 154.369 45.985zM155.869 61.485c-3.387 9.387-3.936 12.846-4.5 20.25C155.099 64.497 153.284 73.154 155.869 61.485z" fill="#2a232b" stroke-width="none" opacity="1"></path><path id="SvgjsPath3791" d="M114.869-1.765c-6.126 0.965-12.52 1.734-24-5.25C101.949-1.999 107.334-1.517 114.869-1.765zM128.401 0.19c-6.076-2.194-6.475-4.768-11.032-6.205 4.159 1.884 4.127 4.303 9.559 6.761 2.642 1.249 11.822 3.782 17.441 7.439C139.405 3.794 136.066 3.059 128.401 0.19zM60.619-2.015c11.593 0.241 13.441-2.719 26.75-4.25C75.403-6.414 74.136-3.561 60.619-2.015zM90.869-1.765c4.669 0.559 11.405 4.746 13.5 9.5C102.84 2.405 96.201-1.735 90.869-1.765zM116.869-0.265c4.652 2.475 6.308 7.699 12 8.75C123.284 6.637 122.178 1.803 116.869-0.265zM108.869 0.735c1.193 2.033 2.93 4.107 7.5 7C111.036 3.353 110.121 2.431 108.869 0.735zM132.119 5.485c5.115 0.627 10.451 5.663 11 11.25C143.375 11.229 138.428 5.581 132.119 5.485zM149.458 14.007c-2.307-2.946-4.339-3.642-5.339-4.022 1.428 0.741 2.997 1.725 4.866 4.386 0 0 3.437 4.57 4.884 9.614C152.871 17.907 149.458 14.007 149.458 14.007zM54.369-0.265c0.185-0.391 5.324 1.866 5.73 2.03 1.229 0.479 7.383 2.967 9.52 3.22C68.618 4.717 54.423-1.414 54.369-0.265zM45.869 5.985c0.682 0.896 1.458 2.263 2.01 3.245 0 0 0.296 0.523 0.571 1.059 0.27 0.537 0.51 1.086 0.51 1.086C49.634 12.912 49.955 13.861 50 15 50.252 12.019 47.702 7.872 45.869 5.985zM42.869 8.985c-2.517 6.149-2.489 9.708 0 16C41.306 18.681 40.986 15.697 42.869 8.985z" fill="#3a353a" stroke-width="none" opacity="1"></path><path id="SvgjsPath3792" d="M157.239 31.745c0.228-3.5 0.323-5.684 0.02-9.14 -1.138-10.129-7.217-15.136-16.529-20.59 -9.158-5.208-15.513-5.751-22.811-10.37 -9.334 9.042-21.935 0.184-25.37-1.52 -16.776-0.716-14.191 2.518-32.75 4.78 -6.844 0.773-9.67 1.72-9.67 1.72 -0.26 0.07-0.52 0.13-0.76 0.2 -0.2 1-0.381 1.616-0.6 3.68 -1.516 0.801-3.484 1.572-5.45 3.41 -4.048 3.536-5.212 17.195-10.83 19.39v0.01c-0.118 0.043-0.428 0.163-0.55 0.18 0.419 2.096 1.188 4.75 2.08 6.79 -1.594 1.959-4.17 4.807-6.48 5.8 0.546 1.98 3.313 10.751 5.32 15.14 -1.1 0-2.003-0.194-4.09-0.56 4.388 5.578 3.281 5.653 6.96 16.58 4.481 12.826 5.208 22.595 11.49 28.9 5.633-10.646 5.146-15.583 5.19-19.41 0.123-5.265-2.433-18.462 1.935-42.798 9.262-8.105 22.378-12.754 34.815-9.932 13.001 2.94 19.525 9.551 38.02 10.89 14.399 1.046 20.201-2.213 21.471 23.93 0.841 17.373-1.163 26.023 3.43 37.78 2.669-3.22 5.645-6.408 8.72-17.46C165.299 62.807 167.816 45.939 157.239 31.745zM161.02 70.726c-3.468 16.597-5.491 19.609-9.061 24.96 -2.882-8.88-2.093-17.47-1.8-26.59 1.486-39.246-8.424-34.825-22.86-35.92 -17.688-1.192-24.622-7.896-37.76-10.54 -11.972-2.45-25.25 0.755-36.35 11.16 -6.045 27.128 0.578 41.608-4.78 55.37 -1.162 2.943-0.429 3.694-1.28 5.84 -4.636-6.978-5.874-16.832-7.41-21.79 -4.784-12.176-4.632-16.171-9.84-21.97 1.271 0.277 2.91 0.457 4.21 0.24 -0.01-0.01-0.01-0.01-0.01-0.02 -0.332-1.001-4.524-12.47-5.75-15.33 2.387-1.152 4.729-3.746 6.35-5.83 -1.292-4.088 0.314 1.902-2.1-6.66 7.366-2.215 6.6-16.125 14.11-21.21 0.997-0.665 1.88-1.213 2.86-1.83 0.221-1.879 0.071-0.771 0.52-3.63 8.803-1.813 12.4-0.024 25.18-4.05 9.681-2.356 16.636-2.269 17.64-2.16 6.167 3.862 9.656 6.038 16.91 5.53 3.323-0.272 5.966-1.878 8.28-4.24 4.01 3.008 8.485 4.831 13.99 7.35 22.244 10.181 24.229 18.459 24.229 32.18 1.398 1.975 2.938 5.099 3.7 7.19C164.593 50.117 163.096 61.037 161.02 70.726z" fill="#000000" stroke-width="none" opacity="1"></path></g><g id="svga-group-glasses-single" ><path id="SvgjsPath3009" d="M100,18.13L100,18.13L100,18.13L100,18.13z" fill="#26120b" stroke-width="none" opacity="1"></path></g></g></g></g><defs id="SvgjsDefs1001"><radialGradient id="SvgjsRadialGradient2883" cx="100" cy="114" r="41" gradientUnits="userSpaceOnUse" class="svga-on-canvas-facehighlight-gradient-single-0"><stop id="SvgjsStop2884" stop-opacity="0.5" stop-color="#ffe4d6" offset="0" ></stop><stop id="SvgjsStop2885" stop-opacity="0" stop-color="#f0c7b1" offset="0.9" ></stop></radialGradient><radialGradient id="SvgjsRadialGradient2887" cx="100" cy="54" r="37" gradientUnits="userSpaceOnUse" class="svga-on-canvas-facehighlight-gradient-single-1"><stop id="SvgjsStop2888" stop-opacity="0.5" stop-color="#ffe4d6" offset="0" ></stop><stop id="SvgjsStop2889" stop-opacity="0" stop-color="#f0c7b1" offset="0.9" ></stop></radialGradient><radialGradient id="SvgjsRadialGradient3144" cx="129.041" cy="83.945" r="15.117" gradientTransform="matrix(-0.9945 0.1042 0.1042 0.9945 192.8281 -12.4633)" gradientUnits="userSpaceOnUse" class="svga-on-canvas-eyesback-gradient-left-0"><stop id="SvgjsStop3145" stop-opacity="1" stop-color="#ffffff" offset="0" ></stop><stop id="SvgjsStop3146" stop-opacity="1" stop-color="#fcfdfd" offset="0.315" ></stop><stop id="SvgjsStop3147" stop-opacity="1" stop-color="#f4f7f8" offset="0.504" ></stop><stop id="SvgjsStop3148" stop-opacity="1" stop-color="#e5ecef" offset="0.66" ></stop><stop id="SvgjsStop3149" stop-opacity="1" stop-color="#d8e2e7" offset="0.76" ></stop></radialGradient><radialGradient id="SvgjsRadialGradient3151" cx="128.643" cy="83.986" r="15.116" gradientTransform="matrix(0.9945 0.1042 -0.1042 0.9945 7.1738 -12.4633)" gradientUnits="userSpaceOnUse" class="svga-on-canvas-eyesback-gradient-right-0"><stop id="SvgjsStop3152" stop-opacity="1" stop-color="#ffffff" offset="0" ></stop><stop id="SvgjsStop3153" stop-opacity="1" stop-color="#fcfdfd" offset="0.316" ></stop><stop id="SvgjsStop3154" stop-opacity="1" stop-color="#f4f7f8" offset="0.505" ></stop><stop id="SvgjsStop3155" stop-opacity="1" stop-color="#e5ecef" offset="0.661" ></stop><stop id="SvgjsStop3156" stop-opacity="1" stop-color="#d8e2e7" offset="0.76" ></stop></radialGradient><radialGradient id="SvgjsRadialGradient3158" cx="129.041" cy="83.945" r="15.117" gradientTransform="matrix(-0.9945 0.1042 0.1042 0.9945 192.8281 -12.4633)" gradientUnits="userSpaceOnUse" class="svga-on-canvas-eyesfront-gradient-left-0"><stop id="SvgjsStop3159" stop-opacity="1" stop-color="#ffffff" offset="0" ></stop><stop id="SvgjsStop3160" stop-opacity="1" stop-color="#fcfdfd" offset="0.316" ></stop><stop id="SvgjsStop3161" stop-opacity="1" stop-color="#f4f7f8" offset="0.505" ></stop><stop id="SvgjsStop3162" stop-opacity="1" stop-color="#e5ecef" offset="0.661" ></stop><stop id="SvgjsStop3163" stop-opacity="1" stop-color="#d8e2e7" offset="0.76" ></stop></radialGradient><radialGradient id="SvgjsRadialGradient3167" cx="121.986" cy="82.496" fx="133.239" fy="82.527" r="16.003" gradientTransform="matrix(0.9998 0.0208 0.0166 -0.7998 -45.3195 145.9395)" gradientUnits="userSpaceOnUse" class="svga-on-canvas-eyesfront-gradient-left-3"><stop id="SvgjsStop3168" stop-opacity="1" stop-color="#e1ac8f" offset="0" ></stop><stop id="SvgjsStop3169" stop-opacity="0.3" stop-color="#e1ac8f" offset="0.7" ></stop><stop id="SvgjsStop3170" stop-opacity="0" stop-color="#f0c7b1" offset="1" ></stop></radialGradient><radialGradient id="SvgjsRadialGradient3172" cx="68.931" cy="105.995" r="29.524" gradientTransform="matrix(1.0336 0 0 1.0336 -1.6796 1.3127)" gradientUnits="userSpaceOnUse" class="svga-on-canvas-eyesfront-gradient-left-4"><stop id="SvgjsStop3173" stop-opacity="0" stop-color="#000000" offset="0.95" ></stop><stop id="SvgjsStop3174" stop-opacity="0.2" stop-color="#000000" offset="1" ></stop></radialGradient><radialGradient id="SvgjsRadialGradient3178" cx="128.643" cy="83.986" r="15.116" gradientTransform="matrix(0.9945 0.1042 -0.1042 0.9945 7.1738 -12.4633)" gradientUnits="userSpaceOnUse" class="svga-on-canvas-eyesfront-gradient-right-0"><stop id="SvgjsStop3179" stop-opacity="1" stop-color="#ffffff" offset="0" ></stop><stop id="SvgjsStop3180" stop-opacity="1" stop-color="#fcfdfd" offset="0.316" ></stop><stop id="SvgjsStop3181" stop-opacity="1" stop-color="#f4f7f8" offset="0.505" ></stop><stop id="SvgjsStop3182" stop-opacity="1" stop-color="#e5ecef" offset="0.661" ></stop><stop id="SvgjsStop3183" stop-opacity="1" stop-color="#d8e2e7" offset="0.76" ></stop></radialGradient><radialGradient id="SvgjsRadialGradient3187" cx="121.587" cy="82.496" fx="132.839" fy="82.527" r="16.003" gradientTransform="matrix(-0.9998 0.0208 -0.0166 -0.7998 244.5208 145.9478)" gradientUnits="userSpaceOnUse" class="svga-on-canvas-eyesfront-gradient-right-3"><stop id="SvgjsStop3188" stop-opacity="1" stop-color="#e1ac8f" offset="0" ></stop><stop id="SvgjsStop3189" stop-opacity="0.3" stop-color="#e1ac8f" offset="0.7" ></stop><stop id="SvgjsStop3190" stop-opacity="0" stop-color="#f0c7b1" offset="1" ></stop></radialGradient><radialGradient id="SvgjsRadialGradient3192" cx="69.316" cy="105.995" r="29.524" gradientTransform="matrix(-1.0336 0 0 1.0336 201.6796 1.3127)" gradientUnits="userSpaceOnUse" class="svga-on-canvas-eyesfront-gradient-right-4"><stop id="SvgjsStop3193" stop-opacity="0" stop-color="#000000" offset="0.95" ></stop><stop id="SvgjsStop3194" stop-opacity="0.2" stop-color="#000000" offset="1" ></stop></radialGradient><radialGradient id="SvgjsRadialGradient3514" cx="-568.659" cy="-521.042" r="59.751" gradientTransform="matrix(0.096 -0.0248 0.0245 0.0961 141.2814 119.9893)" gradientUnits="userSpaceOnUse" class="svga-on-canvas-eyesiris-gradient-left-1"><stop id="SvgjsStop3515" stop-opacity="1" stop-color="#ffffff" offset="0" ></stop><stop id="SvgjsStop3516" stop-opacity="0" stop-color="#ffffff" offset="1" ></stop></radialGradient><radialGradient id="SvgjsRadialGradient3518" cx="-582.838" cy="-519.099" r="59.745" gradientTransform="matrix(0.0991 8.856319e-004 -0.0011 0.0991 131.1134 135.9855)" gradientUnits="userSpaceOnUse" class="svga-on-canvas-eyesiris-gradient-left-2"><stop id="SvgjsStop3519" stop-opacity="1" stop-color="#ffffff" offset="0" ></stop><stop id="SvgjsStop3520" stop-opacity="0" stop-color="#ffffff" offset="1" ></stop></radialGradient><linearGradient id="SvgjsLinearGradient3524" x1="122.67" y1="88.268" x2="123.606" y2="87.152" gradientTransform="matrix(1 0 0 1 -52 0)" gradientUnits="userSpaceOnUse" class="svga-on-canvas-eyesiris-gradient-left-5"><stop id="SvgjsStop3525" stop-opacity="1" stop-color="#ffffff" offset="0" ></stop><stop id="SvgjsStop3526" stop-opacity="0" stop-color="#ffffff" offset="1" ></stop></linearGradient><linearGradient id="SvgjsLinearGradient3528" x1="127.212" y1="82.296" x2="126.463" y2="83.189" gradientTransform="matrix(1 0 0 1 -52 0)" gradientUnits="userSpaceOnUse" class="svga-on-canvas-eyesiris-gradient-left-6"><stop id="SvgjsStop3529" stop-opacity="1" stop-color="#ffffff" offset="0" ></stop><stop id="SvgjsStop3530" stop-opacity="0" stop-color="#ffffff" offset="1" ></stop></linearGradient><linearGradient id="SvgjsLinearGradient3532" x1="129.636" y1="79.822" x2="127.91" y2="81.879" gradientTransform="matrix(1 0 0 1 -52 0)" gradientUnits="userSpaceOnUse" class="svga-on-canvas-eyesiris-gradient-left-7"><stop id="SvgjsStop3533" stop-opacity="1" stop-color="#ffffff" offset="0" ></stop><stop id="SvgjsStop3534" stop-opacity="0" stop-color="#ffffff" offset="1" ></stop></linearGradient><radialGradient id="SvgjsRadialGradient3537" cx="-568.654" cy="-521.042" r="59.752" gradientTransform="matrix(0.096 -0.0248 0.0245 0.0961 193.2804 119.9894)" gradientUnits="userSpaceOnUse" class="svga-on-canvas-eyesiris-gradient-right-1"><stop id="SvgjsStop3538" stop-opacity="1" stop-color="#ffffff" offset="0" ></stop><stop id="SvgjsStop3539" stop-opacity="0" stop-color="#ffffff" offset="1" ></stop></radialGradient><radialGradient id="SvgjsRadialGradient3541" cx="-582.833" cy="-519.102" r="59.747" gradientTransform="matrix(0.0991 8.856319e-004 -0.0011 0.0991 183.1126 135.9856)" gradientUnits="userSpaceOnUse" class="svga-on-canvas-eyesiris-gradient-right-2"><stop id="SvgjsStop3542" stop-opacity="1" stop-color="#ffffff" offset="0" ></stop><stop id="SvgjsStop3543" stop-opacity="0" stop-color="#ffffff" offset="1" ></stop></radialGradient><linearGradient id="SvgjsLinearGradient3547" x1="122.67" y1="88.268" x2="123.606" y2="87.152" gradientUnits="userSpaceOnUse" class="svga-on-canvas-eyesiris-gradient-right-5"><stop id="SvgjsStop3548" stop-opacity="1" stop-color="#ffffff" offset="0" ></stop><stop id="SvgjsStop3549" stop-opacity="0" stop-color="#ffffff" offset="1" ></stop></linearGradient><linearGradient id="SvgjsLinearGradient3551" x1="127.212" y1="82.296" x2="126.463" y2="83.189" gradientUnits="userSpaceOnUse" class="svga-on-canvas-eyesiris-gradient-right-6"><stop id="SvgjsStop3552" stop-opacity="1" stop-color="#ffffff" offset="0" ></stop><stop id="SvgjsStop3553" stop-opacity="0" stop-color="#ffffff" offset="1" ></stop></linearGradient><linearGradient id="SvgjsLinearGradient3555" x1="129.636" y1="79.822" x2="127.91" y2="81.879" gradientUnits="userSpaceOnUse" class="svga-on-canvas-eyesiris-gradient-right-7"><stop id="SvgjsStop3556" stop-opacity="1" stop-color="#ffffff" offset="0" ></stop><stop id="SvgjsStop3557" stop-opacity="0" stop-color="#ffffff" offset="1" ></stop></linearGradient><linearGradient id="SvgjsLinearGradient3610" x1="100" y1="171" x2="100" y2="131" gradientUnits="userSpaceOnUse" class="svga-on-canvas-chinshadow-gradient-single-0"><stop id="SvgjsStop3611" stop-opacity="0.8" stop-color="#e1ac8f" offset="0" ></stop><stop id="SvgjsStop3612" stop-opacity="1" stop-color="#c27b55" offset="0.7" ></stop></linearGradient><linearGradient id="SvgjsLinearGradient3723" x1="100" y1="142" x2="100" y2="139" gradientUnits="userSpaceOnUse" class="svga-on-canvas-mouth-gradient-single-0"><stop id="SvgjsStop3724" stop-opacity="1" stop-color="#e8b9a0" offset="0.1" ></stop><stop id="SvgjsStop3725" stop-opacity="1" stop-color="#e1ac8f" offset="1" ></stop></linearGradient></defs></svg>